<?xml version="1.0" encoding="utf-8"?>
<!-- Generator: Adobe Illustrator 27.5.0, SVG Export Plug-In . SVG Version: 6.00 Build 0)  -->
<svg version="1.1" id="Layer_1" xmlns="http://www.w3.org/2000/svg" xmlns:xlink="http://www.w3.org/1999/xlink" x="0px" y="0px"
	 viewBox="0 0 2014.17 792.22" style="enable-background:new 0 0 2014.17 792.22;" xml:space="preserve">
<style type="text/css">
	.st0{fill:none;stroke:#000000;stroke-width:29.8883;stroke-miterlimit:10;}
	.st1{clip-path:url(#SVGID_00000031926780114738669410000004332367099351126410_);}
	.st2{clip-path:url(#SVGID_00000139981308867183564600000016620086597371625128_);}
	
		.st3{clip-path:url(#SVGID_00000047056699688068702220000011320497152876179638_);fill:none;stroke:#000000;stroke-width:29.8883;stroke-miterlimit:10;}
	.st4{clip-path:url(#SVGID_00000009578244808763004620000009357141310647034303_);}
	.st5{clip-path:url(#SVGID_00000088129831056892164360000006111403389425822602_);}
	
		.st6{clip-path:url(#SVGID_00000119826247798441698790000000009776274733489815_);fill:none;stroke:#000000;stroke-width:29.8883;stroke-miterlimit:10;}
	.st7{clip-path:url(#SVGID_00000044156947165218170590000012583031343180279987_);}
	.st8{clip-path:url(#SVGID_00000014609315052485944080000004190910657015055516_);}
	
		.st9{clip-path:url(#SVGID_00000012462472086827773380000012808597206958233480_);fill:none;stroke:#000000;stroke-width:29.8883;stroke-miterlimit:10;}
	.st10{clip-path:url(#SVGID_00000021810473976365747410000018394168430953943483_);}
	.st11{clip-path:url(#SVGID_00000161616260453407391230000001592261174813688455_);}
	
		.st12{clip-path:url(#SVGID_00000046329972303639456810000017974908012736748940_);fill:none;stroke:#000000;stroke-width:29.8883;stroke-miterlimit:10;}
</style>
<g>
	<path d="M1107.99,188.38H986.04v-30.24l55.52-47.34c18.34-15.86,27.26-28.01,27.26-42.63v-2.48c0-16.36-9.91-25.28-26.27-25.28
		c-18.09,0-27.02,11.4-31.23,25.78l-28.26-10.66c7.44-22.8,26.27-43.13,62.21-43.13c36.93,0,58,21.56,58,51.31
		c0,28.26-19.08,46.85-44.12,66.92l-37.68,30.49h86.5V188.38z"/>
	<path d="M1108.48,101.88c0-56.51,20.33-89.48,65.44-89.48s65.44,32.97,65.44,89.48c0,56.51-20.32,89.48-65.44,89.48
		S1108.48,158.39,1108.48,101.88z M1206.39,117.25V86.51c0-29.74-8.67-48.09-32.47-48.09s-32.47,18.34-32.47,48.09v30.74
		c0,29.74,8.68,48.08,32.47,48.08S1206.39,146.99,1206.39,117.25z M1158.55,104.6v-5.45c0-6.69,3.97-11.9,15.37-11.9
		c11.4,0,15.37,5.21,15.37,11.9v5.45c0,6.69-3.97,11.9-15.37,11.9C1162.52,116.5,1158.55,111.3,1158.55,104.6z"/>
	<path d="M1275.54,222.59V0.01h77.09v21.81h-51.31v178.96h51.31v21.81H1275.54z"/>
	<path d="M1582.9,0.01v222.58h-77.09v-21.81h51.31V21.82h-51.31V0.01H1582.9z"/>
</g>
<g>
	<path d="M1473.08,603.84h121.95v30.24l-55.52,47.34c-18.34,15.86-27.26,28.01-27.26,42.63v2.48c0,16.36,9.91,25.28,26.27,25.28
		c18.09,0,27.02-11.4,31.23-25.78l28.26,10.66c-7.44,22.8-26.27,43.13-62.21,43.13c-36.93,0-58-21.56-58-51.31
		c0-28.26,19.08-46.85,44.12-66.92l37.68-30.49h-86.5V603.84z"/>
	<path d="M1472.59,690.35c0,56.51-20.33,89.48-65.44,89.48s-65.44-32.97-65.44-89.48c0-56.51,20.32-89.48,65.44-89.48
		S1472.59,633.83,1472.59,690.35z M1374.68,674.98v30.74c0,29.74,8.67,48.09,32.47,48.09s32.47-18.34,32.47-48.09v-30.74
		c0-29.74-8.68-48.08-32.47-48.08S1374.68,645.24,1374.68,674.98z M1422.52,687.62v5.45c0,6.69-3.97,11.9-15.37,11.9
		c-11.4,0-15.37-5.21-15.37-11.9v-5.45c0-6.69,3.97-11.9,15.37-11.9C1418.55,675.72,1422.52,680.93,1422.52,687.62z"/>
	<path d="M1305.53,569.64v222.58h-77.09v-21.81h51.31V591.45h-51.31v-21.81H1305.53z"/>
	<path d="M998.17,792.22V569.64h77.09v21.81h-51.31v178.96h51.31v21.81H998.17z"/>
</g>
<path class="st0" d="M1783.04,112.66h176.33c22.01,0,39.85,17.84,39.85,39.85v132.9c0,22.01-17.84,39.85-39.85,39.85h-203.77
	c-22.01,0-57.7,0-79.7,0h-101.88"/>
<polyline points="1724.26,112.66 1818.31,159.68 1783.04,112.66 1818.31,65.64 "/>
<path class="st0" d="M1783.04,679.6h176.33c22.01,0,39.85-17.84,39.85-39.85v-132.9c0-22.01-17.84-39.85-39.85-39.85h-203.77
	c-22.01,0-57.7,0-79.7,0h-101.88"/>
<polyline points="1724.26,679.6 1818.31,726.62 1783.04,679.6 1818.31,632.57 "/>
<g>
	<defs>
		<rect id="SVGID_1_" x="1173" y="300" width="426" height="143"/>
	</defs>
	<clipPath id="SVGID_00000088843890617443551750000011703937387633592972_">
		<use xlink:href="#SVGID_1_"  style="overflow:visible;"/>
	</clipPath>
	<g style="clip-path:url(#SVGID_00000088843890617443551750000011703937387633592972_);">
		<defs>
			<polyline id="SVGID_00000143587774346861575230000006784890005488431277_" points="1173.72,300.36 1457.19,442.09 
				1598.93,442.09 1598.93,300.36 1173.72,300.36 			"/>
		</defs>
		<clipPath id="SVGID_00000029027277452540662920000009448347451976161177_">
			<use xlink:href="#SVGID_00000143587774346861575230000006784890005488431277_"  style="overflow:visible;"/>
		</clipPath>
		<g style="clip-path:url(#SVGID_00000029027277452540662920000009448347451976161177_);">
			<defs>
				<rect id="SVGID_00000019677054232547100020000003636028020916219274_" width="2015" height="793"/>
			</defs>
			<clipPath id="SVGID_00000015328889008561876860000013364343183637521593_">
				<use xlink:href="#SVGID_00000019677054232547100020000003636028020916219274_"  style="overflow:visible;"/>
			</clipPath>
			
				<path style="clip-path:url(#SVGID_00000015328889008561876860000013364343183637521593_);fill:none;stroke:#000000;stroke-width:29.8883;stroke-miterlimit:10;" d="
				M1574.02,325.26h-101.88c-22.01,0-55.81,7.98-75.49,17.82l-212.19,106.09c-19.68,9.84-53.48,17.82-75.49,17.82H865.35"/>
		</g>
	</g>
</g>
<g>
	<defs>
		<rect id="SVGID_00000062168213930331564380000012076771028127542459_" x="982" y="350" width="426" height="142"/>
	</defs>
	<clipPath id="SVGID_00000062901486129999132840000000289607812350165928_">
		<use xlink:href="#SVGID_00000062168213930331564380000012076771028127542459_"  style="overflow:visible;"/>
	</clipPath>
	<g style="clip-path:url(#SVGID_00000062901486129999132840000000289607812350165928_);">
		<defs>
			<polyline id="SVGID_00000111911065927586221700000010269147814728349830_" points="1407.38,491.9 982.18,491.9 982.18,350.17 
				1123.91,350.17 1407.38,491.9 			"/>
		</defs>
		<clipPath id="SVGID_00000157989925875999441670000000578208429907312783_">
			<use xlink:href="#SVGID_00000111911065927586221700000010269147814728349830_"  style="overflow:visible;"/>
		</clipPath>
		<g style="clip-path:url(#SVGID_00000157989925875999441670000000578208429907312783_);">
			<defs>
				<rect id="SVGID_00000022527961459617993330000013916530136743309445_" width="2015" height="793"/>
			</defs>
			<clipPath id="SVGID_00000119818456848294578360000000782544017489980076_">
				<use xlink:href="#SVGID_00000022527961459617993330000013916530136743309445_"  style="overflow:visible;"/>
			</clipPath>
			
				<path style="clip-path:url(#SVGID_00000119818456848294578360000000782544017489980076_);fill:none;stroke:#000000;stroke-width:29.8883;stroke-miterlimit:10;" d="
				M1574.02,325.26h-101.88c-22.01,0-55.81,7.98-75.49,17.82l-212.19,106.09c-19.68,9.84-53.48,17.82-75.49,17.82H865.35"/>
		</g>
	</g>
</g>
<path class="st0" d="M1574.02,467h-101.88c-22.01,0-55.81-7.98-75.49-17.82l-212.19-106.09c-19.68-9.84-53.48-17.82-75.49-17.82
	h-101.88"/>
<g>
	<defs>
		<rect id="SVGID_00000086677975972465381340000011268248326668966787_" x="606" y="300" width="426" height="143"/>
	</defs>
	<clipPath id="SVGID_00000089536051723726427400000016573371495633008294_">
		<use xlink:href="#SVGID_00000086677975972465381340000011268248326668966787_"  style="overflow:visible;"/>
	</clipPath>
	<g style="clip-path:url(#SVGID_00000089536051723726427400000016573371495633008294_);">
		<defs>
			<polyline id="SVGID_00000042010667836075580780000012462981652358525835_" points="606.79,300.36 890.25,442.09 1031.99,442.09 
				1031.99,300.36 606.79,300.36 			"/>
		</defs>
		<clipPath id="SVGID_00000044155471596303163760000007749974337512654744_">
			<use xlink:href="#SVGID_00000042010667836075580780000012462981652358525835_"  style="overflow:visible;"/>
		</clipPath>
		<g style="clip-path:url(#SVGID_00000044155471596303163760000007749974337512654744_);">
			<defs>
				<rect id="SVGID_00000023964222245972175610000005547142663228373949_" width="2015" height="793"/>
			</defs>
			<clipPath id="SVGID_00000106146146894673043310000018064801505170275465_">
				<use xlink:href="#SVGID_00000023964222245972175610000005547142663228373949_"  style="overflow:visible;"/>
			</clipPath>
			
				<path style="clip-path:url(#SVGID_00000106146146894673043310000018064801505170275465_);fill:none;stroke:#000000;stroke-width:29.8883;stroke-miterlimit:10;" d="
				M1574.02,467h-101.88c-22.01,0-55.81-7.98-75.49-17.82l-212.19-106.09c-19.68-9.84-53.48-17.82-75.49-17.82H905.2
				c-22.01,0-55.81,7.98-75.49,17.82L617.52,449.18c-19.69,9.84-53.48,17.82-75.5,17.82H440.14"/>
		</g>
	</g>
</g>
<g>
	<defs>
		<rect id="SVGID_00000129165452883954684910000002506053738176461729_" x="415" y="350" width="426" height="142"/>
	</defs>
	<clipPath id="SVGID_00000021829792833646348870000000751204768947597191_">
		<use xlink:href="#SVGID_00000129165452883954684910000002506053738176461729_"  style="overflow:visible;"/>
	</clipPath>
	<g style="clip-path:url(#SVGID_00000021829792833646348870000000751204768947597191_);">
		<defs>
			<polyline id="SVGID_00000142141866880707779940000000707265722009555105_" points="840.44,491.9 415.24,491.9 415.24,350.17 
				556.97,350.17 840.44,491.9 			"/>
		</defs>
		<clipPath id="SVGID_00000054977931280141227710000001928329120437489084_">
			<use xlink:href="#SVGID_00000142141866880707779940000000707265722009555105_"  style="overflow:visible;"/>
		</clipPath>
		<g style="clip-path:url(#SVGID_00000054977931280141227710000001928329120437489084_);">
			<defs>
				<rect id="SVGID_00000007410964853722082670000016074900597311836801_" width="2015" height="793"/>
			</defs>
			<clipPath id="SVGID_00000071552563440692763120000004281867835463409024_">
				<use xlink:href="#SVGID_00000007410964853722082670000016074900597311836801_"  style="overflow:visible;"/>
			</clipPath>
			
				<path style="clip-path:url(#SVGID_00000071552563440692763120000004281867835463409024_);fill:none;stroke:#000000;stroke-width:29.8883;stroke-miterlimit:10;" d="
				M1574.02,467h-101.88c-22.01,0-55.81-7.98-75.49-17.82l-212.19-106.09c-19.68-9.84-53.48-17.82-75.49-17.82H905.2
				c-22.01,0-55.81,7.98-75.49,17.82L617.52,449.18c-19.69,9.84-53.48,17.82-75.5,17.82H440.14"/>
		</g>
	</g>
</g>
<path class="st0" d="M1007.08,467H905.2c-22.01,0-55.81-7.98-75.49-17.82L617.52,343.08c-19.69-9.84-53.48-17.82-75.5-17.82H440.14"
	/>
<path class="st0" d="M440.14,467H54.8c-22.01,0-39.85,17.84-39.85,39.85v132.9c0,22.01,17.84,39.85,39.85,39.85h810.55"/>
<path class="st0" d="M440.14,325.26H54.8c-22.01,0-39.85-17.84-39.85-39.85v-132.9c0-22.01,17.84-39.85,39.85-39.85h810.55"/>
</svg>
