<svg width="1280" height="720" xmlns="http://www.w3.org/2000/svg" xmlns:xlink="http://www.w3.org/1999/xlink" overflow="hidden"><defs><clipPath id="clip0"><rect x="0" y="0" width="1280" height="720"/></clipPath><linearGradient x1="614.5" y1="146.5" x2="614.5" y2="158.5" gradientUnits="userSpaceOnUse" spreadMethod="reflect" id="fill1"><stop offset="0" stop-color="#9B9B9B"/><stop offset="0.5" stop-color="#8E8E8E"/><stop offset="1" stop-color="#797979"/></linearGradient></defs><g clip-path="url(#clip0)"><rect x="0" y="0" width="1280" height="720" fill="#FFFFFF"/><path d="M1019.5 254.5 879.67 380.5 736.5 254.5Z" stroke="#000000" stroke-width="3" stroke-miterlimit="8" fill="#FFFFFF" fill-rule="evenodd"/><path d="M731 255C731 252.239 733.462 250 736.5 250 739.538 250 742 252.239 742 255 742 257.761 739.538 260 736.5 260 733.462 260 731 257.761 731 255Z" stroke="#000000" stroke-width="2" stroke-miterlimit="8" fill="#FFFFFF" fill-rule="evenodd"/><path d="M1013 256C1013 253.239 1015.69 251 1019 251 1022.31 251 1025 253.239 1025 256 1025 258.761 1022.31 261 1019 261 1015.69 261 1013 258.761 1013 256Z" stroke="#000000" stroke-width="2" stroke-miterlimit="8" fill="#FFFFFF" fill-rule="evenodd"/><path d="M874 380C874 377.239 876.462 375 879.5 375 882.538 375 885 377.239 885 380 885 382.761 882.538 385 879.5 385 876.462 385 874 382.761 874 380Z" stroke="#000000" stroke-width="2" stroke-miterlimit="8" fill="#FFFFFF" fill-rule="evenodd"/><path d="M834 250.833C834 249.821 834.821 249 835.833 249L919.167 249C920.179 249 921 249.821 921 250.833L921 258.167C921 259.179 920.179 260 919.167 260L835.833 260C834.821 260 834 259.179 834 258.167Z" stroke="#000000" stroke-width="2" stroke-miterlimit="8" fill="#FFFFFF" fill-rule="evenodd"/><path d="M827.786 340.866C827.06 341.675 825.816 341.743 825.007 341.017L782.192 302.613C781.382 301.887 781.315 300.643 782.041 299.834L787.297 293.973C788.023 293.164 789.268 293.096 790.077 293.822L832.892 332.226C833.701 332.952 833.769 334.196 833.043 335.005Z" stroke="#000000" stroke-width="2" stroke-miterlimit="8" fill="#FFFFFF" fill-rule="evenodd"/><path d="M980.853 297.718C981.591 298.516 981.542 299.761 980.743 300.499L938.506 339.537C937.707 340.275 936.462 340.226 935.724 339.427L930.381 333.646C929.643 332.847 929.692 331.602 930.49 330.864L972.728 291.827C973.526 291.089 974.772 291.138 975.509 291.936Z" stroke="#000000" stroke-width="2" stroke-miterlimit="8" fill="#FFFFFF" fill-rule="evenodd"/><path d="M503.5 250.5 363.67 376.5 220.5 250.5Z" stroke="#000000" stroke-width="3" stroke-miterlimit="8" fill="#FFFFFF" fill-rule="evenodd"/><path d="M215 251C215 248.239 217.462 246 220.5 246 223.538 246 226 248.239 226 251 226 253.761 223.538 256 220.5 256 217.462 256 215 253.761 215 251Z" stroke="#000000" stroke-width="2" stroke-miterlimit="8" fill="#FFFFFF" fill-rule="evenodd"/><path d="M497 251.5C497 249.015 499.462 247 502.5 247 505.538 247 508 249.015 508 251.5 508 253.985 505.538 256 502.5 256 499.462 256 497 253.985 497 251.5Z" stroke="#000000" stroke-width="2" stroke-miterlimit="8" fill="#FFFFFF" fill-rule="evenodd"/><path d="M358 375C358 372.239 360.462 370 363.5 370 366.538 370 369 372.239 369 375 369 377.761 366.538 380 363.5 380 360.462 380 358 377.761 358 375Z" stroke="#000000" stroke-width="2" stroke-miterlimit="8" fill="#FFFFFF" fill-rule="evenodd"/><text font-family="Cambria Math,Cambria Math_MSFontService,sans-serif" font-weight="400" font-size="24" transform="translate(198.032 240)">𝑣<tspan font-size="24" x="311.975" y="0">𝑢</tspan><tspan font-size="43" x="158.376" y="-82">𝐺</tspan><tspan font-size="43" x="634.191" y="-82">𝑉𝑒𝑐𝑡</tspan><tspan font-size="24" x="156.8" y="163">𝑤</tspan><tspan font-size="24" x="479.877" y="-1">𝐹</tspan><tspan font-size="24" x="495.484" y="-1">(</tspan>𝑣<tspan font-size="24" x="519.184" y="-1">)</tspan><tspan font-size="24" x="828.637" y="-1">𝐹</tspan><tspan font-size="24" x="844.244" y="-1">(</tspan>𝑢<tspan font-size="24" x="868.684" y="-1">)</tspan><tspan font-size="24" x="653.744" y="170">𝐹</tspan><tspan font-size="24" x="669.351" y="170">(</tspan>𝑤<tspan font-size="24" x="697.717" y="170">)</tspan><tspan font-size="24" x="162.967" y="-2">𝑒</tspan><tspan font-size="18" x="173.547" y="3">1</tspan><tspan font-size="24" x="239.04" y="93">𝑒</tspan><tspan font-size="18" x="250.173" y="98">3</tspan><tspan font-size="24" x="65.7533" y="94">𝑒</tspan><tspan font-size="18" x="76.8867" y="99">2</tspan><tspan font-size="24" x="652.614" y="-5">𝐹</tspan><tspan font-size="24" x="668.221" y="-5">(</tspan>𝑒<tspan font-size="18" x="688.801" y="0">1</tspan><tspan font-size="24" x="699.961" y="-5">)</tspan><tspan font-size="24" x="548.034" y="100">𝐹</tspan><tspan font-size="24" x="563.641" y="100">(</tspan>𝑒<tspan font-size="18" x="584.774" y="104">2</tspan><tspan font-size="24" x="595.934" y="100">)</tspan><tspan font-size="24" x="761.588" y="102">𝐹</tspan><tspan font-size="24" x="777.194" y="102">(</tspan>𝑒<tspan font-size="18" x="798.328" y="107">3</tspan><tspan font-size="24" x="809.488" y="102">)</tspan></text><path d="M698.735 261.264 740.818 303.199 740.347 303.671 698.265 261.736ZM742.461 299.661 745.305 308.141 736.814 305.327Z"/><path d="M0.243183-0.227976 40.3758 42.5815 39.8894 43.0375-0.243183 0.227976ZM42.1389 39.1011 44.6922 47.6732 36.3026 44.5725Z" transform="matrix(-1 0 0 1 1052.19 260.5)"/><path d="M741.5 229.167 832.586 229.167 832.586 229.833 741.5 229.833ZM831.252 225.5 839.252 229.5 831.252 233.5Z"/><path d="M1015.9 230.562 922.164 229.882 922.169 229.215 1015.9 229.896ZM923.471 233.558 915.5 229.5 923.529 225.558Z"/><path d="M848.754 401.909 797.31 357.129 797.747 356.626 849.192 401.406ZM795.908 360.77 792.5 352.5 801.16 354.735Z"/><path d="M0.226335-0.244711 47.5098 43.488 47.0572 43.9774-0.226335 0.244711ZM49.0207 39.8909 52.1777 48.2594 43.5886 45.7639Z" transform="matrix(1 0 0 -1 910.5 398.759)"/><text font-family="Cambria Math,Cambria Math_MSFontService,sans-serif" font-weight="400" font-size="24" transform="translate(764.149 213)">𝐹<tspan font-size="18" x="12.04" y="5">𝑣</tspan><tspan font-size="18" x="22.32" y="5"> </tspan><tspan font-size="18" x="26.1533" y="5">≤</tspan><tspan font-size="18" x="37.1534" y="5"> </tspan><tspan font-size="18" x="40.9867" y="5">𝑒</tspan><tspan font-size="14" x="49.6733" y="9">1</tspan><tspan font-size="24" x="177.453" y="0">𝐹</tspan><tspan font-size="18" x="189.493" y="5">𝑢</tspan><tspan font-size="18" x="201.127" y="5"> </tspan><tspan font-size="18" x="204.96" y="5">≤</tspan><tspan font-size="18" x="215.96" y="5"> </tspan><tspan font-size="18" x="219.793" y="5">𝑒</tspan><tspan font-size="14" x="228.48" y="9">1</tspan><tspan font-size="24" x="-112" y="81">𝐹</tspan><tspan font-size="18" x="-99.96" y="86">𝑣</tspan><tspan font-size="18" x="-89.68" y="86"> </tspan><tspan font-size="18" x="-85.8467" y="86">≤</tspan><tspan font-size="18" x="-74.8466" y="86"> </tspan><tspan font-size="18" x="-71.0133" y="86">𝑒</tspan><tspan font-size="14" x="-62.3267" y="90">2</tspan><tspan font-size="24" x="-6.51996" y="184">𝐹</tspan><tspan font-size="18" x="5.52002" y="189">𝑤</tspan><tspan font-size="18" x="20.3" y="189"> </tspan><tspan font-size="18" x="24.1334" y="189">≤</tspan><tspan font-size="18" x="35.1334" y="189"> </tspan><tspan font-size="18" x="38.9667" y="189">𝑒</tspan><tspan font-size="14" x="47.6534" y="192">2</tspan><tspan font-size="24" x="285.063" y="94">𝐹</tspan><tspan font-size="18" x="297.103" y="99">𝑤</tspan><tspan font-size="18" x="311.883" y="99"> </tspan><tspan font-size="18" x="315.717" y="99">≤</tspan><tspan font-size="18" x="326.717" y="99"> </tspan><tspan font-size="18" x="330.55" y="99">𝑒</tspan><tspan font-size="14" x="339.237" y="103">3</tspan><tspan font-size="24" x="202.547" y="186">𝐹</tspan><tspan font-size="18" x="214.587" y="191">𝑤</tspan><tspan font-size="18" x="229.367" y="191"> </tspan><tspan font-size="18" x="233.2" y="191">≤</tspan><tspan font-size="18" x="244.2" y="191"> </tspan><tspan font-size="18" x="248.033" y="191">𝑒</tspan><tspan font-size="14" x="256.72" y="194">3</tspan></text><path d="M492.5 149.5 730.5 149.5 730.5 146.5 736.5 152.5 730.5 158.5 730.5 155.5 492.5 155.5Z" stroke="#000000" stroke-width="0.666667" stroke-miterlimit="8" fill="url(#fill1)" fill-rule="evenodd"/><text font-family="Cambria Math,Cambria Math_MSFontService,sans-serif" font-weight="400" font-size="37" transform="translate(608.23 134)">𝐹</text><path d="M799.5 206.5 799.5 214.059" stroke="#000000" stroke-width="1.33333" stroke-miterlimit="8" fill="none" fill-rule="evenodd"/><path d="M978.5 206.5 978.5 214.059" stroke="#000000" stroke-width="1.33333" stroke-miterlimit="8" fill="none" fill-rule="evenodd"/><path d="M1089.5 301.5 1089.5 310.571" stroke="#000000" stroke-width="1.33333" stroke-miterlimit="8" fill="none" fill-rule="evenodd"/><path d="M687.5 287.5 687.5 296.571" stroke="#000000" stroke-width="1.33333" stroke-miterlimit="8" fill="none" fill-rule="evenodd"/><path d="M797.5 390.5 797.5 399.571" stroke="#000000" stroke-width="1.33333" stroke-miterlimit="8" fill="none" fill-rule="evenodd"/><path d="M1006.5 392.5 1006.5 401.571" stroke="#000000" stroke-width="1.33333" stroke-miterlimit="8" fill="none" fill-rule="evenodd"/></g></svg>